<svg version="1.1" id="pipe" xmlns="http://www.w3.org/2000/svg" xmlns:xlink="http://www.w3.org/1999/xlink" x="0px" y="0px"
	 width="100%" viewBox="0 0 52 320" enable-background="new 0 0 52 320" xml:space="preserve">
<path fill="#558022" opacity="1.000000" stroke="none" 
	d="
M49.000000,321.000000 
	C46.629444,321.000000 44.258884,321.000000 41.444176,320.531342 
	C41.000042,256.736145 41.000084,193.409607 41.000072,130.083069 
	C41.000065,97.753204 41.036251,65.423210 40.913563,33.093811 
	C40.905857,31.064308 39.656086,29.039522 38.648323,27.012596 
	C37.864483,27.023964 37.416489,27.035276 36.633232,27.041243 
	C35.850986,27.053930 35.404007,27.071966 34.622948,27.074816 
	C33.843632,27.082991 33.398399,27.106352 32.620689,27.102606 
	C31.844643,27.101267 31.401072,27.127037 30.625853,27.114313 
	C29.850779,27.104401 29.407352,27.132982 28.632828,27.115292 
	C27.858240,27.100952 27.414751,27.132883 26.640287,27.112434 
	C25.865294,27.095158 25.421272,27.130264 24.646431,27.108702 
	C23.871292,27.089725 23.426975,27.127420 22.652536,27.100681 
	C21.878094,27.079430 21.433771,27.122612 20.661549,27.104277 
	C19.892645,27.083843 19.451643,27.124928 18.680046,27.105980 
	C17.905024,27.085716 17.460590,27.125484 16.685347,27.108437 
	C15.910157,27.089012 15.465781,27.126408 14.690447,27.110779 
	C13.915387,27.092915 13.471286,27.128077 12.696144,27.115973 
	C11.921412,27.099131 11.477717,27.129555 10.702678,27.117098 
	C9.927477,27.098906 9.483622,27.123596 8.707986,27.112753 
	C7.932393,27.094036 7.488582,27.110849 6.727262,27.099058 
	C5.985329,27.064199 5.560906,27.057943 5.220090,26.663727 
	C6.969688,25.850677 8.631907,25.075563 10.302286,25.057562 
	C20.786646,24.944576 31.272823,24.997593 41.758400,25.000923 
	C48.994316,25.003222 48.999149,25.006981 48.999237,32.397003 
	C49.000355,128.598007 48.999989,224.798996 49.000000,321.000000 
z"/>
<path fill="#543847" opacity="1.000000" stroke="none" 
	d="
M49.333332,321.000000 
	C48.999989,224.798996 49.000355,128.598007 48.999237,32.397003 
	C48.999149,25.006981 48.994316,25.003222 41.758400,25.000923 
	C31.272823,24.997593 20.786646,24.944576 10.302286,25.057562 
	C8.631907,25.075563 6.969688,25.850677 5.174091,27.127216 
	C5.029657,125.652443 5.014828,223.326218 5.000000,321.000000 
	C4.555555,321.000000 4.111111,321.000000 3.333333,320.531342 
	C3.000000,223.707657 3.000097,127.352646 2.999068,30.997625 
	C2.999052,29.499987 3.174324,27.964754 2.887862,26.522530 
	C2.766999,25.914034 1.659189,25.501570 1.000000,25.000000 
	C1.000000,17.035166 1.000000,9.070333 1.000000,1.052749 
	C18.221848,1.052749 35.443878,1.052749 53.000000,1.052749 
	C53.000000,8.684313 53.000000,16.373465 52.562466,24.549435 
	C51.749954,26.816481 51.047821,28.596531 51.046852,30.376965 
	C50.993988,127.251297 51.000000,224.125641 51.000000,321.000000 
	C50.555553,321.000000 50.111111,321.000000 49.333332,321.000000 
M4.153068,4.102231 
	C3.810295,9.720003 3.467523,15.337775 3.299242,21.730097 
	C4.967088,22.153233 6.631351,22.925650 8.303360,22.942799 
	C19.121580,23.053749 29.942070,23.070478 40.760689,22.981337 
	C52.629414,22.883543 50.956196,24.589760 50.951626,12.607272 
	C50.948399,4.144824 53.095383,3.647324 41.240082,4.058535 
	C40.489105,4.086771 39.738132,4.115008 38.321400,4.071265 
	C37.876282,4.097032 37.431164,4.122800 36.320004,4.071980 
	C35.874687,4.099383 35.429375,4.126786 34.316216,4.074500 
	C33.869663,4.104776 33.423115,4.135053 32.313477,4.083675 
	C31.869825,4.111661 31.426174,4.139647 30.320278,4.074111 
	C29.876217,4.101272 29.432158,4.128434 28.318289,4.059130 
	C27.869766,4.093989 27.421244,4.128849 26.312565,4.068505 
	C25.870535,4.103282 25.428503,4.138060 24.323887,4.058854 
	C23.878456,4.093214 23.433025,4.127574 22.323307,4.047056 
	C21.877199,4.085491 21.431091,4.123926 20.322910,4.042184 
	C19.878143,4.083643 19.433374,4.125103 18.352438,4.031065 
	C17.921999,3.981675 17.491558,3.932285 16.590960,3.222109 
	C13.397224,3.537729 10.203489,3.853349 6.347823,4.037742 
	C5.901991,4.079932 5.456159,4.122122 4.153068,4.102231 
z"/>
<path fill="#FFFFFF" opacity="1.000000" stroke="none" 
	d="
M1.000000,25.468658 
	C1.659189,25.501570 2.766999,25.914034 2.887862,26.522530 
	C3.174324,27.964754 2.999052,29.499987 2.999068,30.997625 
	C3.000097,127.352646 3.000000,223.707657 3.000001,320.531342 
	C2.333336,320.668121 1.216174,320.455078 1.090969,319.980408 
	C0.803674,318.891235 1.000000,317.674500 1.000000,316.509552 
	C1.000000,219.652145 1.000000,122.794724 1.000000,25.468658 
z"/>
<path fill="#FFFFFF" opacity="1.000000" stroke="none" 
	d="
M51.500000,321.000000 
	C51.000000,224.125641 50.993988,127.251297 51.046852,30.376965 
	C51.047821,28.596531 51.749954,26.816481 52.562466,25.018126 
	C53.000000,122.166664 53.004486,219.333328 52.958439,316.499969 
	C52.957726,318.000153 52.333336,319.500000 51.500000,321.000000 
z"/>
<path fill="#DCF685" opacity="1.000000" stroke="none" 
	d="
M20.989450,27.165794 
	C21.433771,27.122612 21.878094,27.079430 22.656815,27.558365 
	C22.994144,125.720322 22.997072,223.360153 23.000000,321.000000 
	C22.555542,321.000000 22.111084,321.000000 21.333347,320.531342 
	C20.996531,222.430389 20.992990,124.798088 20.989450,27.165794 
z"/>
<path fill="#84AA45" opacity="1.000000" stroke="none" 
	d="
M5.333333,321.000000 
	C5.014828,223.326218 5.029657,125.652443 5.090484,27.515175 
	C5.560906,27.057943 5.985329,27.064199 6.714128,27.555843 
	C7.012337,125.694153 7.006168,223.347076 7.000000,321.000000 
	C6.555555,321.000000 6.111111,321.000000 5.333333,321.000000 
z"/>
<path fill="#94B751" opacity="1.000000" stroke="none" 
	d="
M7.333333,321.000000 
	C7.006168,223.347076 7.012337,125.694153 7.031638,27.584448 
	C7.488582,27.110849 7.932393,27.094036 8.696684,27.569157 
	C9.011442,125.707397 9.005721,223.353699 9.000000,321.000000 
	C8.555555,321.000000 8.111111,321.000000 7.333333,321.000000 
z"/>
<path fill="#A5C65C" opacity="1.000000" stroke="none" 
	d="
M9.333333,321.000000 
	C9.005721,223.353699 9.011442,125.707397 9.028465,27.604691 
	C9.483622,27.123596 9.927477,27.098906 10.693689,27.573792 
	C11.010698,125.715576 11.005349,223.357788 11.000000,321.000000 
	C10.555555,321.000000 10.111111,321.000000 9.333333,321.000000 
z"/>
<path fill="#B4D468" opacity="1.000000" stroke="none" 
	d="
M11.333333,321.000000 
	C11.005349,223.357788 11.010698,125.715576 11.025036,27.616673 
	C11.477717,27.129555 11.921412,27.099131 12.689230,27.573187 
	C13.008904,125.718445 13.004452,223.359222 13.000000,321.000000 
	C12.555555,321.000000 12.111111,321.000000 11.333333,321.000000 
z"/>
<path fill="#C3E073" opacity="1.000000" stroke="none" 
	d="
M13.333333,321.000000 
	C13.004452,223.359222 13.008904,125.718445 13.020269,27.620451 
	C13.471286,27.128077 13.915387,27.092915 14.685024,27.568344 
	C15.007040,125.719292 15.003520,223.359650 15.000000,321.000000 
	C14.555555,321.000000 14.111111,321.000000 13.333333,321.000000 
z"/>
<path fill="#D1EC7D" opacity="1.000000" stroke="none" 
	d="
M15.333333,321.000000 
	C15.003520,223.359650 15.007040,125.719292 15.015982,27.621368 
	C15.465781,27.126408 15.910157,27.089012 16.681370,27.566113 
	C17.005468,125.720406 17.002733,223.360199 17.000000,321.000000 
	C16.555555,321.000000 16.111111,321.000000 15.333333,321.000000 
z"/>
<path fill="#DCF685" opacity="1.000000" stroke="none" 
	d="
M17.333332,321.000000 
	C17.002733,223.360199 17.005468,125.720406 17.012180,27.622932 
	C17.460590,27.125484 17.905024,27.085716 18.677458,27.563728 
	C19.003639,125.721008 19.001820,223.360504 19.000000,321.000000 
	C18.555555,321.000000 18.111111,321.000000 17.333332,321.000000 
z"/>
<path fill="#E4FD8B" opacity="1.000000" stroke="none" 
	d="
M19.333332,321.000000 
	C19.001820,223.360504 19.003639,125.721008 19.008049,27.623760 
	C19.451643,27.124928 19.892645,27.083843 20.661549,27.104277 
	C20.992990,124.798088 20.996531,222.430389 21.000034,320.531342 
	C20.555555,321.000000 20.111111,321.000000 19.333332,321.000000 
z"/>
<path fill="#D1EC7D" opacity="1.000000" stroke="none" 
	d="
M23.333332,321.000000 
	C22.997072,223.360153 22.994144,125.720322 22.986938,27.622799 
	C23.426975,27.127420 23.871292,27.089725 24.651939,27.566154 
	C24.992180,125.720184 24.996090,223.360092 25.000000,321.000000 
	C24.555555,321.000000 24.111111,321.000000 23.333332,321.000000 
z"/>
<path fill="#C3E073" opacity="1.000000" stroke="none" 
	d="
M25.333332,321.000000 
	C24.996090,223.360092 24.992180,125.720184 24.982761,27.622822 
	C25.421272,27.130264 25.865294,27.095158 26.647331,27.569523 
	C26.990234,125.719330 26.995117,223.359665 27.000000,321.000000 
	C26.555555,321.000000 26.111111,321.000000 25.333332,321.000000 
z"/>
<path fill="#B5D468" opacity="1.000000" stroke="none" 
	d="
M27.333332,321.000000 
	C26.995117,223.359665 26.990234,125.719330 26.978306,27.621902 
	C27.414751,27.132883 27.858240,27.100952 28.642067,27.571846 
	C28.988270,125.716446 28.994135,223.358231 29.000000,321.000000 
	C28.555555,321.000000 28.111111,321.000000 27.333332,321.000000 
z"/>
<path fill="#A4C65C" opacity="1.000000" stroke="none" 
	d="
M29.333332,321.000000 
	C28.994135,223.358231 28.988270,125.716446 28.973166,27.618118 
	C29.407352,27.132982 29.850779,27.104401 30.637344,27.570307 
	C30.986992,125.709862 30.993496,223.354935 31.000000,321.000000 
	C30.555555,321.000000 30.111111,321.000000 29.333332,321.000000 
z"/>
<path fill="#94B751" opacity="1.000000" stroke="none" 
	d="
M31.333332,321.000000 
	C30.993496,223.354935 30.986992,125.709862 30.968994,27.608801 
	C31.401072,27.127037 31.844643,27.101267 32.634136,27.559183 
	C32.986710,125.695244 32.993355,223.347626 33.000000,321.000000 
	C32.555557,321.000000 32.111111,321.000000 31.333332,321.000000 
z"/>
<path fill="#84AA45" opacity="1.000000" stroke="none" 
	d="
M33.333332,321.000000 
	C32.993355,223.347626 32.986710,125.695244 32.966614,27.586290 
	C33.398399,27.106352 33.843632,27.082991 34.635880,27.534229 
	C34.988590,125.672554 34.994297,223.336273 35.000000,321.000000 
	C34.555553,321.000000 34.111111,321.000000 33.333332,321.000000 
z"/>
<path fill="#769C3A" opacity="1.000000" stroke="none" 
	d="
M35.333332,321.000000 
	C34.994297,223.336273 34.988590,125.672554 34.969959,27.549416 
	C35.404007,27.071966 35.850986,27.053930 36.642952,27.504793 
	C36.991959,125.649124 36.995979,223.324570 37.000000,321.000000 
	C36.555553,321.000000 36.111111,321.000000 35.333332,321.000000 
z"/>
<path fill="#689130" opacity="1.000000" stroke="none" 
	d="
M37.333332,321.000000 
	C36.995979,223.324570 36.991959,125.649124 36.978218,27.510139 
	C37.416489,27.035276 37.864483,27.023964 38.653229,27.479916 
	C38.995987,125.631454 38.997993,223.315720 39.000000,321.000000 
	C38.555553,321.000000 38.111111,321.000000 37.333332,321.000000 
z"/>
<path fill="#5D8728" opacity="1.000000" stroke="none" 
	d="
M39.333332,321.000000 
	C38.997993,223.315720 38.995987,125.631454 38.989075,27.479862 
	C39.656086,29.039522 40.905857,31.064308 40.913563,33.093811 
	C41.036251,65.423210 41.000065,97.753204 41.000072,130.083069 
	C41.000084,193.409607 41.000042,256.736145 41.000011,320.531342 
	C40.555553,321.000000 40.111111,321.000000 39.333332,321.000000 
z"/>
<path fill="#558022" opacity="1.000000" stroke="none" 
	d="
M41.988808,4.133307 
	C53.095383,3.647324 50.948399,4.144824 50.951626,12.607272 
	C50.956196,24.589760 52.629414,22.883543 40.760689,22.981337 
	C29.942070,23.070478 19.121580,23.053749 8.303360,22.942799 
	C6.631351,22.925650 4.967088,22.153233 3.527977,21.354916 
	C4.175385,20.931931 4.594059,20.884127 5.344316,20.894325 
	C6.121128,20.912031 6.566358,20.871733 7.434963,20.896317 
	C9.568360,20.917496 11.278381,20.873793 13.319597,20.890253 
	C14.096299,20.912378 14.541805,20.874340 15.319123,20.894455 
	C16.096739,20.913988 16.542543,20.875368 17.319687,20.890102 
	C18.095509,20.906765 18.539988,20.870071 19.314976,20.890833 
	C20.089731,20.912310 20.533983,20.876331 21.310913,20.889412 
	C22.089624,20.906261 22.535652,20.874052 23.314220,20.884310 
	C24.091431,20.893515 24.536106,20.860250 25.309093,20.868507 
	C26.077442,20.888754 26.517477,20.867479 27.293407,20.887268 
	C28.079422,20.909443 28.529541,20.890553 29.311447,20.899691 
	C30.086241,20.906948 30.529247,20.886179 31.303570,20.893414 
	C32.077755,20.911905 32.520618,20.902393 33.298347,20.921144 
	C34.080524,20.944647 34.527836,20.939886 35.309582,20.950272 
	C36.090321,20.963600 36.536629,20.961784 37.316925,20.970596 
	C38.096081,20.981108 38.541256,20.980986 39.360264,20.947487 
	C40.487118,19.275385 41.240135,17.636660 42.199772,15.751863 
	C42.268669,14.337920 42.130951,13.170049 41.995060,11.561945 
	C41.994194,8.792244 41.991501,6.462775 41.988808,4.133307 
z"/>
<path fill="#E1FA88" opacity="1.000000" stroke="none" 
	d="
M12.988401,20.830090 
	C11.278381,20.873793 9.568360,20.917496 7.432448,20.440136 
	C7.007623,14.669037 7.008689,9.419003 7.009755,4.168969 
	C10.203489,3.853349 13.397224,3.537729 16.800812,3.824890 
	C17.000643,4.609784 16.990622,4.791895 16.652863,4.982657 
	C15.887755,4.999066 15.450385,5.006825 14.653442,5.166721 
	C13.858713,10.489269 13.423557,15.659679 12.988401,20.830090 
z"/>
<path fill="#608A2A" opacity="1.000000" stroke="none" 
	d="
M41.614445,4.095921 
	C41.991501,6.462775 41.994194,8.792244 41.790802,11.808876 
	C41.720863,13.663338 41.857006,14.830635 41.993149,15.997932 
	C41.240135,17.636660 40.487118,19.275385 39.364319,20.482147 
	C38.992081,14.747871 38.989620,9.445558 38.987156,4.143245 
	C39.738132,4.115008 40.489105,4.086771 41.614445,4.095921 
z"/>
<path fill="#709736" opacity="1.000000" stroke="none" 
	d="
M36.982937,20.959967 
	C36.536629,20.961784 36.090321,20.963600 35.317230,20.489758 
	C34.988316,14.727461 34.986187,9.440825 34.984058,4.154189 
	C35.429375,4.126786 35.874687,4.099383 36.656818,4.564874 
	C36.990070,10.358500 36.986504,15.659234 36.982937,20.959967 
z"/>
<path fill="#C0DD71" opacity="1.000000" stroke="none" 
	d="
M20.978233,20.840353 
	C20.533983,20.876331 20.089731,20.912310 19.318708,20.434910 
	C18.990828,14.669876 18.989717,9.418219 18.988607,4.166562 
	C19.433374,4.125103 19.878143,4.083643 20.658161,4.558861 
	C20.988352,10.330477 20.983294,15.585415 20.978233,20.840353 
z"/>
<path fill="#B5D468" opacity="1.000000" stroke="none" 
	d="
M21.310913,20.889412 
	C20.983294,15.585415 20.988352,10.330477 20.989197,4.618950 
	C21.431091,4.123926 21.877199,4.085491 22.658916,4.560994 
	C22.990246,10.330568 22.985964,15.586205 22.981682,20.841841 
	C22.535652,20.874052 22.089624,20.906261 21.310913,20.889412 
z"/>
<path fill="#ACCC62" opacity="1.000000" stroke="none" 
	d="
M23.314219,20.884310 
	C22.985964,15.586205 22.990246,10.330568 22.991062,4.618433 
	C23.433025,4.127574 23.878456,4.093214 24.657890,4.571439 
	C24.988188,10.331676 24.984484,15.579330 24.980780,20.826984 
	C24.536106,20.860250 24.091431,20.893515 23.314219,20.884310 
z"/>
<path fill="#A4C65C" opacity="1.000000" stroke="none" 
	d="
M25.309093,20.868505 
	C24.984484,15.579330 24.988188,10.331676 24.989182,4.628430 
	C25.428503,4.138060 25.870535,4.103282 26.649612,4.572013 
	C26.976942,10.332416 26.967226,15.589312 26.957512,20.846207 
	C26.517477,20.867479 26.077442,20.888754 25.309093,20.868505 
z"/>
<path fill="#94B751" opacity="1.000000" stroke="none" 
	d="
M27.293407,20.887268 
	C26.967226,15.589312 26.976942,10.332416 26.979691,4.619615 
	C27.421244,4.128849 27.869766,4.093989 28.656921,4.563457 
	C28.990257,10.335742 28.984959,15.603703 28.979660,20.871662 
	C28.529541,20.890553 28.079422,20.909443 27.293407,20.887268 
z"/>
<path fill="#8DB14B" opacity="1.000000" stroke="none" 
	d="
M29.311447,20.899691 
	C28.984959,15.603703 28.990257,10.335742 28.991825,4.611689 
	C29.432158,4.128434 29.876217,4.101272 30.655571,4.575637 
	C30.984659,10.339911 30.978455,15.602660 30.972252,20.865410 
	C30.529247,20.886179 30.086241,20.906948 29.311447,20.899691 
z"/>
<path fill="#84AA45" opacity="1.000000" stroke="none" 
	d="
M31.303570,20.893414 
	C30.978455,15.602660 30.984659,10.339911 30.986694,4.622398 
	C31.426174,4.139647 31.869825,4.111661 32.650707,4.578847 
	C32.979790,10.346973 32.971638,15.619927 32.963486,20.892881 
	C32.520618,20.902393 32.077755,20.911905 31.303570,20.893414 
z"/>
<path fill="#79A03D" opacity="1.000000" stroke="none" 
	d="
M33.298347,20.921144 
	C32.971638,15.619927 32.979790,10.346973 32.982250,4.619675 
	C33.423115,4.135053 33.869663,4.104776 34.650139,4.114345 
	C34.986187,9.440825 34.988316,14.727461 34.982796,20.474613 
	C34.527836,20.939886 34.080524,20.944647 33.298347,20.921144 
z"/>
<path fill="#C9E677" opacity="1.000000" stroke="none" 
	d="
M18.670523,4.098814 
	C18.989717,9.418219 18.990828,14.669876 18.988201,20.377457 
	C18.539988,20.870071 18.095509,20.906765 17.322788,20.434204 
	C16.989901,14.941303 16.985250,9.957655 16.980602,4.974007 
	C16.990622,4.791895 17.000643,4.609784 17.035892,4.155283 
	C17.491558,3.932285 17.921999,3.981675 18.670523,4.098814 
z"/>
<path fill="#689130" opacity="1.000000" stroke="none" 
	d="
M37.316925,20.970596 
	C36.986504,15.659234 36.990070,10.358500 36.989838,4.603168 
	C37.431164,4.122800 37.876282,4.097032 38.654278,4.107255 
	C38.989620,9.445558 38.992081,14.747871 38.990486,20.515524 
	C38.541256,20.980986 38.096081,20.981108 37.316925,20.970596 
z"/>
<path fill="#D9F383" opacity="1.000000" stroke="none" 
	d="
M6.678789,4.103355 
	C7.008689,9.419003 7.007623,14.669037 7.009072,20.375254 
	C6.566358,20.871733 6.121128,20.912031 5.341003,20.437902 
	C5.007514,14.670421 5.008920,9.417366 5.010326,4.164311 
	C5.456159,4.122122 5.901991,4.079932 6.678789,4.103355 
z"/>
<path fill="#D1EC7D" opacity="1.000000" stroke="none" 
	d="
M4.581697,4.133271 
	C5.008920,9.417366 5.007514,14.670421 5.009420,20.379898 
	C4.594059,20.884127 4.175385,20.931931 3.440731,20.967640 
	C3.467523,15.337775 3.810295,9.720003 4.581697,4.133271 
z"/>
<path fill="#D9F383" opacity="1.000000" stroke="none" 
	d="
M13.319597,20.890251 
	C13.423557,15.659679 13.858713,10.489269 14.649678,5.631501 
	C14.999429,10.908195 14.993371,15.872249 14.987312,20.836302 
	C14.541805,20.874340 14.096299,20.912378 13.319597,20.890251 
z"/>
<path fill="#D1EC7D" opacity="1.000000" stroke="none" 
	d="
M15.319124,20.894455 
	C14.993371,15.872249 14.999429,10.908195 15.009252,5.479363 
	C15.450385,5.006825 15.887755,4.999066 16.652863,4.982657 
	C16.985250,9.957655 16.989901,14.941303 16.991449,20.380848 
	C16.542543,20.875368 16.096739,20.913988 15.319124,20.894455 
z"/>
<path fill="#5D8728" opacity="1.000000" stroke="none" 
	d="
M42.199768,15.751862 
	C41.857006,14.830635 41.720863,13.663338 41.788979,12.249109 
	C42.130951,13.170049 42.268669,14.337920 42.199768,15.751862 
z"/>
</svg>